<?xml version="1.0" encoding="utf-8"?>
<!-- Generator: Adobe Illustrator 24.0.1, SVG Export Plug-In . SVG Version: 6.00 Build 0)  -->
<svg version="1.1" id="Layer_1" xmlns="http://www.w3.org/2000/svg" xmlns:xlink="http://www.w3.org/1999/xlink" x="0px" y="0px"
	 viewBox="0 0 136 32" style="enable-background:new 0 0 136 32;" xml:space="preserve">
<style type="text/css">
	.st0{fill:#55DFFF;}
	.st1{fill:#FFFFFF;}
</style>
<g>
	<path class="st0" d="M17.62,12.67L15.24,23h-1.45l-2.35-7.77L9.13,23H7.73L5.27,12.67h1.47l1.76,7.94l2.33-7.94h1.22l2.35,7.94
		l1.78-7.94H17.62z"/>
	<path class="st0" d="M20.66,18.34c0,0.08,0,0.15,0.02,0.21c0.04,0.34,0.1,0.65,0.23,0.97c0.13,0.38,0.31,0.76,0.57,1.09
		c0.25,0.36,0.59,0.67,1.03,0.92c0.15,0.11,0.38,0.19,0.69,0.27c0.29,0.08,0.65,0.13,1.07,0.13c0.29,0,0.69-0.04,1.15-0.15
		c0.46-0.08,0.94-0.27,1.45-0.57v1.28c-0.55,0.34-1.13,0.55-1.74,0.65c-0.63,0.1-1.24,0.13-1.87,0.06c-0.55-0.06-1.09-0.21-1.6-0.48
		c-0.55-0.25-0.97-0.55-1.28-0.92c-0.42-0.46-0.76-1.03-1.01-1.74c-0.27-0.69-0.4-1.51-0.4-2.46c0-0.76,0.08-1.45,0.29-2.08
		c0.19-0.63,0.48-1.18,0.86-1.64c0.36-0.44,0.82-0.8,1.36-1.07c0.55-0.25,1.18-0.4,1.91-0.4c0.59,0,1.13,0.13,1.68,0.38
		c0.52,0.25,0.94,0.59,1.24,0.99c0.55,0.76,0.84,1.91,0.84,3.44v1.11H20.66z M20.64,17.06h4.93c0-0.97-0.15-1.74-0.42-2.33
		c-0.17-0.29-0.4-0.55-0.69-0.76c-0.31-0.17-0.67-0.27-1.05-0.27c-0.8,0-1.47,0.36-1.99,1.03C20.96,15.32,20.71,16.09,20.64,17.06z"
		/>
	<path class="st0" d="M33.58,23.23c-0.67,0-1.28-0.11-1.78-0.36c-0.52-0.21-0.94-0.57-1.28-1.03c-0.34-0.44-0.61-1.03-0.8-1.74
		c-0.21-0.69-0.29-1.49-0.29-2.37V8.28h1.53v5.77c0.69-1.09,1.6-1.64,2.73-1.64c0.63,0,1.24,0.15,1.78,0.42
		c0.55,0.29,0.99,0.69,1.32,1.18c0.31,0.5,0.57,1.07,0.73,1.7c0.15,0.67,0.23,1.34,0.23,2.02c0,0.88-0.1,1.68-0.29,2.37
		c-0.21,0.71-0.46,1.3-0.8,1.74c-0.34,0.46-0.78,0.82-1.3,1.03C34.82,23.13,34.23,23.23,33.58,23.23z M36.16,17.84
		c0-0.55-0.06-1.09-0.17-1.64c-0.13-0.5-0.31-0.97-0.55-1.34c-0.25-0.36-0.52-0.63-0.86-0.84c-0.36-0.19-0.69-0.29-1.03-0.29
		s-0.67,0.13-0.99,0.34c-0.34,0.23-0.63,0.52-0.84,0.86c-0.25,0.38-0.42,0.82-0.55,1.32c-0.15,0.5-0.21,1.05-0.21,1.6
		c0,0.57,0.06,1.11,0.19,1.62c0.1,0.55,0.27,0.99,0.52,1.36c0.21,0.38,0.5,0.67,0.86,0.84c0.34,0.21,0.67,0.29,1.01,0.29
		s0.67-0.08,1.03-0.29c0.34-0.17,0.63-0.46,0.86-0.84s0.42-0.82,0.55-1.36C36.1,18.95,36.16,18.4,36.16,17.84z"/>
	<path class="st1" d="M54.91,19.01h-8.69V8.45h1.62v9.13h7.08V19.01z M61.59,14.58H58.5v10.94h-1.6V6.18h1.6v6.87h3.09V14.58z"/>
	<path class="st1" d="M72.26,17.04h-9.05v-5.52h5.75V8.87h-5.84V7.44h7.43v5.48H64.8v2.69h7.45V17.04z M75.55,22.31
		c0,0.52-0.11,1.01-0.31,1.49c-0.23,0.46-0.55,0.88-0.92,1.24c-0.42,0.34-0.88,0.59-1.41,0.8c-0.55,0.17-1.13,0.27-1.72,0.27
		c-0.61,0-1.18-0.11-1.7-0.27c-0.54-0.21-1.03-0.46-1.43-0.8c-0.4-0.36-0.69-0.78-0.9-1.24c-0.23-0.48-0.34-0.97-0.34-1.49
		c0-0.5,0.1-1.01,0.34-1.49c0.21-0.46,0.5-0.88,0.9-1.24c0.4-0.34,0.88-0.59,1.43-0.8c0.53-0.17,1.09-0.27,1.7-0.27
		c0.59,0,1.18,0.11,1.72,0.27c0.52,0.21,0.99,0.46,1.41,0.8c0.38,0.36,0.69,0.78,0.92,1.24C75.45,21.3,75.55,21.8,75.55,22.31z
		 M73.96,22.31c0-0.67-0.27-1.26-0.8-1.72c-0.55-0.46-1.2-0.69-1.97-0.69c-0.8,0-1.45,0.23-1.97,0.69c-0.55,0.46-0.8,1.05-0.8,1.72
		c0,0.69,0.25,1.26,0.8,1.72c0.52,0.46,1.18,0.69,1.97,0.69c0.78,0,1.43-0.23,1.97-0.69C73.68,23.57,73.96,23,73.96,22.31z
		 M78.49,13.01h-3v5.08h-1.6V6.18h1.6v5.27h3V13.01z"/>
	<path class="st1" d="M90.99,13.34l4.7,5.35l-1.13,1.07l-4.14-4.79c-0.82,1.95-2.06,3.67-3.74,5.14l-1.13-1.03
		c2.88-2.56,4.33-5.94,4.33-10.18v-0.8h1.64v1.01C91.51,10.63,91.33,12.04,90.99,13.34z M99.47,25.52h-1.6V6.18h1.6V25.52z"/>
	<path class="st1" d="M108.36,12.46l3.78,3.42l-1.01,1.09l-3.65-3.36c-0.19,0.23-0.38,0.44-0.57,0.63
		c-1.26,1.34-2.58,2.41-3.99,3.23l-0.99-1.11c1.2-0.67,2.46-1.7,3.76-3.09s2.14-2.79,2.52-4.24H103V7.63h7.24
		c-0.06,0.59-0.27,1.39-0.63,2.35C109.3,10.84,108.88,11.66,108.36,12.46z M114.99,26.05h-1.6v-5.71h-8.25v-1.43h9.85V26.05z
		 M117.99,12.69h-3v5.12h-1.6V6.18h1.6v4.96h3V12.69z"/>
</g>
</svg>
