<?xml version="1.0" encoding="utf-8"?>
<!-- Generator: Adobe Illustrator 24.0.1, SVG Export Plug-In . SVG Version: 6.00 Build 0)  -->
<svg version="1.1" id="Layer_1" xmlns="http://www.w3.org/2000/svg" xmlns:xlink="http://www.w3.org/1999/xlink" x="0px" y="0px"
	 viewBox="0 0 1440 669" style="enable-background:new 0 0 1440 669;" xml:space="preserve">
<style type="text/css">
	.st0{fill:#27726C;}
	.st1{fill:#1D5E58;}
	.st2{fill:#8F8377;}
	.st3{fill:#FFFFFD;}
	.st4{fill:#ACA6A6;}
	.st5{fill:#3C3B40;}
	.st6{fill:#797979;}
	.st7{fill:#686867;}
	.st8{fill:#6D6D6C;}
	.st9{fill:#272D17;}
	.st10{fill:#333534;}
	.st11{fill:#354C3C;}
	.st12{fill:#090909;}
	.st13{fill:#1E201F;}
	.st14{fill:#2F381C;}
</style>
<g>
	<path id="SVGCleanerId_0" class="st0" d="M1060.88,541.97c-199.77-7.01-376.13-12.31-452.55-12.31
		c-125.17,0-476.91,2.19-736.5,3.93c-11.25,0.53-22.2,1.04-32.95,1.52c14.85,20.97,32.12,41.3,51.88,60.82
		c86.67,85.57,218.59,156.16,378.69,202.57c132.81,38.51,284.99,60.37,446.71,60.37c161.74,0,313.92-21.87,446.73-60.37
		c160.1-46.41,292.02-116.99,378.69-202.57c6.34-6.26,12.39-12.6,18.23-19.01C1385.88,568.1,1149.82,554.53,1060.88,541.97z"/>
</g>
<g>
	<path id="SVGCleanerId_0_1_" class="st0" d="M1060.88,541.97c-199.77-7.01-376.13-12.31-452.55-12.31
		c-125.17,0-476.91,2.19-736.5,3.93c-11.25,0.53-22.2,1.04-32.95,1.52c14.85,20.97,32.12,41.3,51.88,60.82
		c86.67,85.57,218.59,156.16,378.69,202.57c132.81,38.51,284.99,60.37,446.71,60.37c161.74,0,313.92-21.87,446.73-60.37
		c160.1-46.41,292.02-116.99,378.69-202.57c6.34-6.26,12.39-12.6,18.23-19.01C1385.88,568.1,1149.82,554.53,1060.88,541.97z"/>
</g>
<g>
	<path id="SVGCleanerId_0_2_" class="st0" d="M1060.88,541.97c-199.77-7.01-376.13-12.31-452.55-12.31
		c-125.17,0-476.91,2.19-736.5,3.93c-11.25,0.53-22.2,1.04-32.95,1.52c14.85,20.97,32.12,41.3,51.88,60.82
		c86.67,85.57,218.59,156.16,378.69,202.57c132.81,38.51,284.99,60.37,446.71,60.37c161.74,0,313.92-21.87,446.73-60.37
		c160.1-46.41,292.02-116.99,378.69-202.57c6.34-6.26,12.39-12.6,18.23-19.01C1385.88,568.1,1149.82,554.53,1060.88,541.97z"/>
</g>
<g>
	<path id="SVGCleanerId_0_3_" class="st0" d="M1060.88,541.97c-199.77-7.01-376.13-12.31-452.55-12.31
		c-125.17,0-476.91,2.19-736.5,3.93c-11.25,0.53-22.2,1.04-32.95,1.52c14.85,20.97,32.12,41.3,51.88,60.82
		c86.67,85.57,218.59,156.16,378.69,202.57c132.81,38.51,284.99,60.37,446.71,60.37c161.74,0,313.92-21.87,446.73-60.37
		c160.1-46.41,292.02-116.99,378.69-202.57c6.34-6.26,12.39-12.6,18.23-19.01C1385.88,568.1,1149.82,554.53,1060.88,541.97z"/>
</g>
<g>
	<path id="SVGCleanerId_0_4_" class="st0" d="M1060.88,541.97c-199.77-7.01-376.13-12.31-452.55-12.31
		c-125.17,0-476.91,2.19-736.5,3.93c-11.25,0.53-22.2,1.04-32.95,1.52c14.85,20.97,32.12,41.3,51.88,60.82
		c86.67,85.57,218.59,156.16,378.69,202.57c132.81,38.51,284.99,60.37,446.71,60.37c161.74,0,313.92-21.87,446.73-60.37
		c160.1-46.41,292.02-116.99,378.69-202.57c6.34-6.26,12.39-12.6,18.23-19.01C1385.88,568.1,1149.82,554.53,1060.88,541.97z"/>
</g>
<g>
	<path class="st0" d="M1029.3,535.67c-53-19.45-15.03-34.12-15.03-34.12c9.36-14.63-450.89-17.46-579.58-17.96
		c-40.87,1.97-95.23,5.16-151.59,10.11c6.26,11.4,11.73,19.22,11.73,19.22l-18.67-0.84c-43.34,2.48-245.14,13.98-404.3,21.5
		c259.59-1.74,611.33-3.93,736.5-3.93c76.42,0,252.78,5.3,452.55,12.31C1045.77,539.83,1034.88,537.73,1029.3,535.67z"/>
	<g>
		<path id="SVGCleanerId_1" class="st0" d="M1029.3,535.67c-53-19.45-15.03-34.12-15.03-34.12c9.36-14.63-450.89-17.46-579.58-17.96
			c-40.87,1.97-95.23,5.16-151.59,10.11c6.26,11.4,11.73,19.22,11.73,19.22l-18.67-0.84c-43.34,2.48-245.14,13.98-404.3,21.5
			c259.59-1.74,611.33-3.93,736.5-3.93c76.42,0,252.78,5.3,452.55,12.31C1045.77,539.83,1034.88,537.73,1029.3,535.67z"/>
	</g>
	<g>
		<path id="SVGCleanerId_1_1_" class="st0" d="M1029.3,535.67c-53-19.45-15.03-34.12-15.03-34.12
			c9.36-14.63-450.89-17.46-579.58-17.96c-40.87,1.97-95.23,5.16-151.59,10.11c6.26,11.4,11.73,19.22,11.73,19.22l-18.67-0.84
			c-43.34,2.48-245.14,13.98-404.3,21.5c259.59-1.74,611.33-3.93,736.5-3.93c76.42,0,252.78,5.3,452.55,12.31
			C1045.77,539.83,1034.88,537.73,1029.3,535.67z"/>
	</g>
	<g>
		<path id="SVGCleanerId_1_2_" class="st0" d="M1029.3,535.67c-53-19.45-15.03-34.12-15.03-34.12
			c9.36-14.63-450.89-17.46-579.58-17.96c-40.87,1.97-95.23,5.16-151.59,10.11c6.26,11.4,11.73,19.22,11.73,19.22l-18.67-0.84
			c-43.34,2.48-245.14,13.98-404.3,21.5c259.59-1.74,611.33-3.93,736.5-3.93c76.42,0,252.78,5.3,452.55,12.31
			C1045.77,539.83,1034.88,537.73,1029.3,535.67z"/>
	</g>
</g>
<g>
	<path id="SVGCleanerId_1_3_" class="st1" d="M1029.3,535.67c-53-19.45-15.03-34.12-15.03-34.12
		c9.36-14.63-450.89-17.46-579.58-17.96c-40.87,1.97-95.23,5.16-151.59,10.11c6.26,11.4,11.73,19.22,11.73,19.22l-18.67-0.84
		c-43.34,2.48-245.14,13.98-404.3,21.5c259.59-1.74,611.33-3.93,736.5-3.93c76.42,0,252.78,5.3,452.55,12.31
		C1045.77,539.83,1034.88,537.73,1029.3,535.67z"/>
</g>
<g>
	<path class="st0" d="M502.4,455.95c9.19,0.25,18.42,0.58,27.41,0.99c0.71-0.42,1.6-0.98,2.64-1.65
		C522.42,455.56,512.38,455.78,502.4,455.95z"/>
	<g>
		<path id="SVGCleanerId_2" class="st0" d="M502.4,455.95c9.19,0.25,18.42,0.58,27.41,0.99c0.71-0.42,1.6-0.98,2.64-1.65
			C522.42,455.56,512.38,455.78,502.4,455.95z"/>
	</g>
	<g>
		<path id="SVGCleanerId_2_1_" class="st0" d="M502.4,455.95c9.19,0.25,18.42,0.58,27.41,0.99c0.71-0.42,1.6-0.98,2.64-1.65
			C522.42,455.56,512.38,455.78,502.4,455.95z"/>
	</g>
	<g>
		<path id="SVGCleanerId_2_2_" class="st0" d="M502.4,455.95c9.19,0.25,18.42,0.58,27.41,0.99c0.71-0.42,1.6-0.98,2.64-1.65
			C522.42,455.56,512.38,455.78,502.4,455.95z"/>
	</g>
</g>
<g>
	<path id="SVGCleanerId_2_3_" class="st1" d="M502.4,455.95c9.19,0.25,18.42,0.58,27.41,0.99c0.71-0.42,1.6-0.98,2.64-1.65
		C522.42,455.56,512.38,455.78,502.4,455.95z"/>
</g>
<g>
	<path class="st2" d="M1214.16,414.26c2.42,1.47,4.61,2.9,6.53,4.25c57.17-6.71,122.34-16.05,162.28-22.21L1214.16,414.26z"/>
	<path class="st2" d="M1074.02,519.61c0,0-20.05-18.73-10.03-32.11c2.84-3.8,6.5-6.88,10.28-9.44
		c-43.16-0.26-187.89-1.05-228.26,0.08c-42.51,1.19-254.78,1.32-344.32,1.34c1.23,0.46,2.55,0.93,3.6,1.34c0,0-27.96,0.73-70.6,2.78
		c128.69,0.51,588.94,3.34,579.58,17.96c0,0-37.95,14.67,15.03,34.12c5.58,2.05,16.46,4.15,31.59,6.29
		c88.92,12.56,324.98,26.13,498.96,34.95c4.68-5.14,9.05-10.37,13.42-15.61c2.99-3.61,6.05-7.19,8.9-10.83
		C1399.74,546.83,1136.38,538.4,1074.02,519.61z"/>
</g>
<g>
	<path class="st3" d="M1643.1,281.43c-6.05-0.33-10.01,1.23-5.37,5.35c4.28,3.8,6.97,8.49,9.85,13.28
		C1646.23,293.83,1644.88,287.6,1643.1,281.43z"/>
	<path class="st3" d="M1653.28,342.35c-0.15-2.72-0.15-5.46-0.38-8.16c-2.95,0.01-6.19-0.09-10.14-0.56
		c-21.87-2.59-22.63-0.25-34.06-7.41c-0.36-0.22-0.64-0.37-1.02-0.62c-12.53-8.03-2.5-18.73-22.55-12.04
		c-20.05,6.69-12.51,13.38-22.54,17.4c-10.01,4.01-12.53,10.7-27.56,14.72c-15.04,4.01-20.05,6.69-37.58,6.69
		s-27.56,13.38-40.08,4.01s-5.01-13.37-22.55-12.04c-17.55,1.34,5.01-1.33-17.55,1.34c-22.54,2.67-7.51,12.04-22.54,2.67
		c-15.03-9.37,0-6.7-15.03-9.37s-20.05-4.01-30.07,1.34c-10.01,5.35,12.54,5.35-10.01,5.35c-22.54,0-37.58-2.67-47.61-8.03
		c-10.01-5.35-27.56-13.38-27.56-13.38l-27.56,14.72c0,0-42.59,8.03-57.63,6.7c-15.04-1.34-32.58-2.67-45.09-12.04
		c-12.54-9.36-17.55-6.68-12.54-16.05s0,0,5.01-9.37c5.02-9.37-10.01-8.03-10.01-8.03s-35.58,10.87-59.38,20.68
		c2.5,4.36,4.26,8.47,4.26,11.43c0,7.71,2.59,25.79,4.04,35.32c26.33,6.39,50.09,11.51,58.58,11.51c16.78,0,60.81,18.15,86.39,32.95
		c1.29,0.75,2.46,1.47,3.64,2.19l168.81-17.96c14.32-2.21,25.56-4.02,31.78-5.13c17.52-3.12,107.53-15.92,193.93-26.42
		c15.34-1.87,30.58-3.66,45.27-5.31c0-0.47,0.06-0.93,0.06-1.41C1654.02,352.76,1653.57,347.56,1653.28,342.35z"/>
</g>
<path class="st4" d="M1647.58,300.07c-2.87-4.79-5.57-9.47-9.85-13.28c-4.63-4.12-0.67-5.69,5.38-5.35
	c-1.86-6.52-4.15-12.96-6.49-19.39c-7.18-19.77-16.54-39.11-27.94-57.98c-6.95-11.5-14.7-22.8-23.13-33.93
	c-6.17,2-10.73,3.08-12.96,2.91c-17.55-1.34-22.55-4.02-40.08-10.71c-17.55-6.69-40.08-32.11-47.61-38.81
	c-5.75-5.12-13.03-8.68-28.43-13.67l2.76,10.28l-15.04,12.04c0,0-33.82,0-71.4,14.04c-37.6,14.05-37.6,18.07-37.6,18.07
	s-48.85,20.07-63.88,26.1c-15.04,6.02-30.07,14.04-52.62,24.09c-22.55,10.04-60.15-6.03-60.15-6.03s-22.54-6.03-56.37-2.01
	c-33.84,4.02,0,0-26.31,10.04c-26.31,10.04-67.66,4.01-67.66,4.01c-12.87-8.83-34.64-46.82-10.09-46.82c0.84,0,1.72-0.03,2.56-0.04
	c-16.24-1.7-13.09-6.35-26.87-12.66c-17.53-8.03-42.59-22.74-42.59-22.74s-17.53,6.69-27.54,10.71
	c-10.03,4.01-62.63,37.46-62.63,37.46l-52.61-20.07c12.53,9.36,7.52,32.11,25.05,44.15C831,222.55,836,229.25,853.55,234.6
	c17.53,5.35,22.54,9.37,40.08,12.04c17.53,2.67,17.53,0,45.09,5.35c27.57,5.35,40.08,10.71,55.12,10.71
	c15.04,0,22.55,5.35,30.06,12.04c1.41,1.25,2.78,2.81,4.13,4.47c5.91,7.24,10.9,16.94,10.9,16.94s11.76,13.28,18.29,24.7
	c23.78-9.81,59.38-20.68,59.38-20.68s15.03-1.34,10.01,8.03c-5.01,9.37,0,0-5.01,9.37c-5.01,9.37,0,6.69,12.54,16.05
	c12.53,9.37,30.06,10.71,45.09,12.04c15.03,1.33,57.63-6.7,57.63-6.7l27.56-14.72c0,0,17.55,8.03,27.56,13.38
	c10.03,5.35,25.05,8.03,47.61,8.03c22.55,0,0,0,10.01-5.35c10.03-5.35,15.04-4.02,30.07-1.34c15.03,2.67,0,0,15.03,9.37
	c15.04,9.36,0,0,22.54-2.67c22.55-2.67,0,0,17.55-1.35c17.55-1.33,10.03,2.67,22.55,12.04c12.53,9.37,22.54-4.01,40.08-4.01
	c17.55,0,22.54-2.67,37.58-6.69c15.03-4.02,17.55-10.71,27.56-14.72c10.03-4.01,2.5-10.71,22.54-17.4
	c20.05-6.69,10.04,4.02,22.55,12.04c0.38,0.25,0.65,0.4,1.02,0.62c11.43,7.16,12.2,4.82,34.06,7.41c3.95,0.47,7.19,0.58,10.14,0.56
	C1651.88,322.7,1650,311.34,1647.58,300.07z"/>
<path class="st5" d="M1061.49,332.29c0-2.96-1.76-7.06-4.26-11.43c-6.53-11.41-18.29-24.7-18.29-24.7s-4.99-9.71-10.9-16.94
	c-1.35-1.65-2.74-3.23-4.13-4.47c-7.51-6.69-15.03-12.04-30.06-12.04s-27.54-5.35-55.12-10.71c-27.56-5.35-27.56-2.67-45.09-5.35
	c-17.55-2.67-22.55-6.69-40.08-12.04c-17.55-5.35-22.55-12.04-40.08-24.09c-17.55-12.04-12.54-34.79-25.05-44.15
	c-12.53-9.37-67.64-22.74-67.64-22.74c-23.19,5.16-56.76,27.79-70.91,37.89c9.27,6.75,14.47,13.2,23.31,16.98
	c12.53,5.35,45.09,16.05,45.09,16.05s32.58,10.71,42.59,17.39c10.03,6.69,20.04,1.34,20.04,13.39c0,9.62,128.13,62.88,180.76,88.62
	c11.79,5.76,19.74,10.14,21.65,12.34c17.59,4.78,51.63,13.9,82.25,21.33C1064.08,358.07,1061.49,340,1061.49,332.29z"/>
<g>
	<path class="st6" d="M1022.65,425.26h-3.61c1.23,0.08,2.5,0.17,3.78,0.25L1022.65,425.26z"/>
	<path class="st6" d="M1214.16,414.26c-1.2-0.73-2.36-1.45-3.64-2.19c-25.57-14.81-69.61-32.95-86.39-32.95
		c-8.49,0-32.25-5.12-58.58-11.51c-30.62-7.42-64.68-16.55-82.25-21.33c0.22,0.26,0.49,0.53,0.53,0.73
		c0.8,3.01-4.61,5.31-12.29,7.08c-16.27,3.72-42.84,4.97-42.84,4.97l-122.77-28.09l-20.54-5.91l-115.38-33.25
		c3.91,4.26,9.12,9.66,14.36,15.32c1.18,0.66,1.86,1.48,2.02,2.17c8.03,8.76,15.58,17.74,17.64,23.46
		c4.18,11.59,34.24,34.34,41.76,39.7c7.51,5.35,70.14,26.76,55.11,36.12c-3.38,2.1-8.54,4.86-14.63,7.85
		c9.49-0.03,17.15-1.16,17.15-1.16s-25.05-8.03,27.56-8.03c52.61,0,70.16-2.67,95.21,0c25.05,2.67,47.59,12.04,60.13,14.72
		c4.13,0.88,15.98,2.19,32.72,3.32h3.61l0.18,0.25c7.65,0.48,16.11,0.93,25.39,1.26c12.75,0.47,26.85,0.74,41.68,0.71
		c20.05-0.04,41.46-0.69,62.93-2.22c2.95-0.21,5.91-0.4,8.85-0.65c17.31-1.45,37.61-3.6,58.99-6.11
		C1218.76,417.15,1216.57,415.73,1214.16,414.26z"/>
</g>
<path class="st7" d="M983.28,346.28c-1.91-2.2-9.86-6.57-21.65-12.34c-52.61-25.74-180.76-79-180.76-88.62
	c0-12.04-10.01-6.7-20.04-13.39c-10.03-6.69-42.59-17.39-42.59-17.39s-32.56-10.71-45.09-16.05c-8.84-3.78-14.02-10.22-23.31-16.98
	c-3.88-2.81-8.38-5.69-14.29-8.45c-12.04-5.62-32.13-9.31-46.32-11.36c7.59,12.44,10.9,34.02,12.59,43.07
	c2.5,13.38,11.08,35.51,13.58,40.86c1.75,3.74,19.03,20.76,28.39,32.95c4.04,5.27,6.37,8.37,8.63,11.21
	c1.08,1.35,15.86,0.1,17.6,2.01l115.38,33.25l20.54,5.91l122.77,28.1c0,0,26.57-1.24,42.84-4.97c7.69-1.76,13.09-4.07,12.29-7.08
	C983.77,346.81,983.5,346.53,983.28,346.28z"/>
<g>
	<path class="st8" d="M321.56,135.6c-5.42-4.9-17.12-4.01-17.12-4.01c-2.12-2.93-3.78-4.53-5.09-5.83c0.16,0.61,0.5,1.26,0.5,1.81
		c0,7.77,5.14,12.81,9.77,18.12C312.81,142.71,322.95,136.85,321.56,135.6z"/>
	<path class="st8" d="M686.4,309.28c0.02,0.08,0.1,0.18,0.1,0.26c0,1.34,5.85,8.92,5.85,8.92l11.7,14.27
		C701.99,327.02,694.43,318.03,686.4,309.28z"/>
	<path class="st8" d="M537.02,442.45c-6.68-1.79-2.5,4.02-13.36-1.79c-10.85-5.8-14.2-4.9-15.03-10.7c-0.31-2.12-1.29-3.55-2.5-4.71
		c-2.12-2.01-5.18-2.88-8.35-2.88c-5.01,0-25.88-1.34-25.88-1.34s-60.98-27.65-75.18-30.33c-14.2-2.67-37.58-11.6-53.44-12.04
		c-15.87-0.44-17.55,1.34-27.56-0.44c-2.06-0.36-6.65-2.14-12.56-4.75c15.77,9.4,36.77,26.33,41.93,51.78
		c0.31,1.57,0.43,3.25,0.62,4.89c28.91,8.71,57.08,17.3,81.91,25.04c18.6-0.07,46.44,0,74.76,0.76c9.98-0.17,20.02-0.39,30.05-0.66
		c0.43-0.28,0.74-0.47,1.23-0.79C543.7,447.81,543.72,444.24,537.02,442.45z"/>
	<path class="st8" d="M745.81,372.43c-7.52-5.35-37.58-28.1-41.76-39.7l-18.36,6.24l-3.35,10.26v16.5l-8.35,14.72
		c0,0-10.03,6.25-5.01,8.03c5.01,1.79,7.51,8.92,7.51,8.92s-0.83,4.91,10.85,7.58c11.7,2.67,12.53,5.35,16.7,6.24
		c4.18,0.89,13.37,0,12.53,3.57c-0.83,3.57-5.85,7.13-5.85,7.13s-2.89,1.85-7.55,3.32c-2.16,0.68-4.58,1.3-7.48,1.58
		c-9.18,0.89-3.35,3.12-18.36,1.34c-14.33-1.7-12.13,1.77-22.73-2.92c-0.52-0.23-0.92-0.38-1.51-0.66c0,0-8.35-6.69-4.18-8.92
		c4.18-2.23,14.18-3.57,15.87-7.13c1.66-3.57-5.85-8.92-5.85-12.5c0-3.57,10.03-18.73,13.36-23.64c3.33-4.9,3.35-21.41,3.35-21.41
		l-9.19,5.8l-12.53-3.12c0,0-7.52,6.68-13.37,8.03c-5.85,1.34-10.85,8.47-19.2,8.92c-8.35,0.44-17.55,0-30.06-4.02
		c-12.54-4.02-13.37-7.58-20.05-5.35c-6.68,2.23,8.35,7.13,4.18,8.03c-4.18,0.89,5.01,6.69-12.53,3.12
		c-17.53-3.57-19.2-9.37-21.72-12.04c-2.52-2.67,3.35-0.89-11.69-0.89c-15.03,0-10.03-0.44-23.4-0.44
		c-13.36,0-18.38,3.57-25.05,0.89c-6.68-2.68,5.01-8.48-10.85-4.02c-15.87,4.46-15.87,6.69-21.71,8.48
		c-5.85,1.78-0.84,6.69-12.53,3.12c-11.7-3.57-13.37-2.23-19.2-6.25c-5.83-4.02-17.53-9.81-17.53-9.81s-6.68-10.26-10.85-11.15
		c-4.18-0.89-3.35,3.57-13.36,1.79c-10.03-1.79-19.2-2.23-24.23-4.02c-5.01-1.79-13.36-2.23-13.36-8.47c0-6.24,6.69-6.25-2.5-8.03
		c-9.19-1.78-12.53-1.34-17.55-2.67c-5.01-1.34-10.85-2.24-10.85-2.24S288.99,322,281.47,322s-20.05,0.45-15.04,6.69
		c5.01,6.25,28.4,22.74,40.93,24.98c12.51,2.22,30.06,12.93,46.76,15.6c16.7,2.68,50.11,15.17,59.3,16.96
		c9.18,1.78,95.2,19.62,95.2,19.62l59.29,9.36c0,0,12.53-4.01,24.21-2.22c11.7,1.79,9.19,1.34,20.05,4.01
		c5.91,1.45,16.45,5,26.23,8.23c8.22,2.72,15.89,5.23,19.71,6.04c8.35,1.79,30.9,1.79,42.59,1.79c11.7,0,23.38-0.44,15.86,5.35
		c-2.9,2.25-5.3,4.27-7.7,6.09c29.17-6.51,36.81-14.26,36.24-19.27c-0.25-2.18-2.04-3.85-4.31-4.66c-4.04-1.44,0.71-3.62,8.2-4.94
		c6.45-1.14,14.91-1.65,21.87-0.41c5.12,0.92,10.51,1.18,15.43,1.16c6.09-3,11.27-5.75,14.63-7.85
		C815.95,399.19,753.32,377.78,745.81,372.43z"/>
	<path class="st8" d="M679.83,305.97c1.91,0,3.42,0.5,4.56,1.14c-5.24-5.65-10.45-11.06-14.36-15.32c-1.76-1.91-3.32-3.65-4.4-5
		c-2.26-2.82-5.91-7.49-9.95-12.76c-9.36-12.19-20.86-27.66-22.61-31.4c-2.5-5.35-20.05-25.42-22.55-38.8
		c-1.69-9.05-13.68-29.7-21.28-42.13c-3.64-5.95-6.28-10.05-6.28-10.05s-15.04-16.06-22.55-18.73
		c-7.51-2.67-12.53-12.04-20.04-24.08c-7.52-12.04-42.59-1.34-42.59-1.34c-12.53,0-25.05-6.68-32.58-4.01
		c-7.51,2.67-30.06-2.67-37.58-5.35c-7.51-2.68-27.54-1.34-35.06-1.34s-45.1,14.72-45.1,14.72l-40.65,7.24l8.91,2.58
		c0,0-7.52-0.44,2.5,2.67c0,0,9.19,3.12,10.85,0c0,0,6.68,0.89,9.18,1.79c2.5,0.89,10.85,2.23,13.36,2.68
		c2.5,0.44,3.36,2.67,2.5,4.45c-0.84,1.79-0.84,8.03-0.84,8.03l8.35,4.91l10.03,4.9c0,0,24.23,0.89,23.4,4.02
		c-0.84,3.12-0.84,4.02-8.35,4.91c-7.52,0.89-14.2,4.01-14.2,4.01s0.83,3.57,5.01,4.92c4.18,1.34,22.55,2.22,22.55,2.22l-10.03,5.35
		l-15.04,9.81c0,0,9.19,6.69,14.2,12.93c5.01,6.25,22.55,23.64,28.39,29.43c5.85,5.8,15.87,14.27,22.55,16.5
		c6.68,2.22,12.53,5.8,19.19,8.47c6.69,2.67,13.37,6.25,13.37,6.25s13.36,7.13,15.87,7.58c2.5,0.44,42.59,0.44,42.59,0.44
		l-8.35,6.69c0,0,10.03,6.69,31.73,4.91l24.21,8.92c0,0-14.19,4.01-5.85,8.47c8.34,4.46,25.88,10.26,25.88,10.26
		s24.23,5.35,24.23,2.22c0-3.12-13.36-4.01-5.02-5.35c8.35-1.34,8.35-0.44,15.03,0.89c0.12,0.02,0.22,0.05,0.34,0.07
		c6.47,1.32,10.56,2.63,13.02,3.5c2.5,0.89,19.2,9.37,24.23,6.69c5.01-2.67,8.34-5.8,8.34-5.8S675.65,305.97,679.83,305.97z"/>
</g>
<path class="st3" d="M142.02,29.89l-20.05-5.35l-15.04,1.34l-37.58,6.69l-30.06-2.67l-17.53,5.35L4.21,47.29l-40.08,13.38
	l70.14,2.67l2.52-9.36l37.58,4.02l32.56-14.72l22.55-1.34h30.07c0,0,1.7-1.81,4.32-3.95L142.02,29.89z"/>
<path class="st6" d="M-73.85,114.63h-33.74c-1.54,1.53-3.23,3.02-4.74,4.56c8.17-0.88,15.9-1.89,23.17-1.89
	C-79.49,117.31-69.82,114.63-73.85,114.63z"/>
<path class="st3" d="M238.04,109.28c-2.5-0.45-24.21-2.23-29.23-2.23s-24.21,4.01-24.21,4.01l-25.05,5.35
	c-2.5,2.67,20.05-0.44,33.4-2.23c13.36-1.78,15.03-3.12,18.38-2.67s23.38-0.45,29.21-1.78
	C246.39,108.39,240.55,109.73,238.04,109.28z"/>
<path class="st9" d="M1608.69,364.75c-86.4,10.5-176.42,23.3-193.93,26.42c-6.22,1.11-17.46,2.93-31.78,5.13
	c-39.95,6.16-105.12,15.51-162.28,22.21c-21.38,2.51-41.68,4.66-58.99,6.11c-2.95,0.25-5.91,0.44-8.85,0.65
	c-21.46,1.53-42.88,2.17-62.93,2.22c-14.85,0.03-28.95-0.25-41.68-0.71c-9.27-0.34-17.74-0.78-25.39-1.26
	c-1.27-0.08-2.55-0.17-3.78-0.25c-16.75-1.13-28.59-2.44-32.72-3.32c-12.53-2.67-35.08-12.04-60.13-14.72
	c-25.05-2.67-42.59,0-95.21,0s-27.56,8.03-27.56,8.03s-7.65,1.14-17.15,1.16c-4.92,0.01-10.29-0.25-15.43-1.16
	c-6.95-1.23-15.42-0.73-21.87,0.41c-7.49,1.32-12.25,3.5-8.2,4.94c2.26,0.81,4.06,2.48,4.31,4.66c0.59,5.01-7.06,12.76-36.24,19.27
	c0,0,0,0.01-0.02,0.01c-0.19,0.04-0.43,0.11-0.62,0.14c-42.59,9.37-97.71,17.39-157.85,13.38c-6.59-0.44-13.52-0.81-20.57-1.12
	c-8.99-0.41-18.21-0.74-27.41-0.99c-28.34-0.76-56.16-0.83-74.76-0.76c0.95,0.29,1.86,0.59,2.8,0.88
	c-8.79-0.17-17.37-0.36-25.35-0.69l64.68,22.21l5.48,1.88h26.47c89.54-0.01,301.81-0.14,344.32-1.34
	c40.37-1.13,185.1-0.34,228.26-0.08c9.52-6.47,19.8-9.28,19.8-9.28s115-24.14,208.31-43.5c55.66-11.55,103.64-21.4,114.86-23.39
	c13.43-2.39,68.97-12.61,132.75-23.34c19.13-3.22,38.98-6.48,58.68-9.59c15.3-2.42,30.49-4.75,45.15-6.9
	c0.02-0.87,0.12-1.73,0.12-2.61C1639.25,361.08,1624.03,362.88,1608.69,364.75z"/>
<g>
	<path class="st3" d="M205.47,124.9c-4.16-0.89-7.51-1.79-12.51-1.79c-5.01,0-13.36,1.79-13.36,1.79s-10.03,2.67-15.87,3.57
		c-5.85,0.89-12.51,1.78-21.71,1.78c-9.18,0-10.85,2.23-19.2,3.57c-8.35,1.34-7.52,0.44-11.7-0.45c-4.18-0.89-0.84-2.23-13.37-2.67
		c-12.51-0.45-20.86,2.67-25.88,2.67c-5.01,0-16.7-0.45-20.88-0.45s-10.85,0-18.38-0.89c-7.52-0.89-12.53-3.1-17.53-3.57
		c-14.2-1.34-2.5,3.57,0,4.45c2.5,0.89,13.36,3.57,18.38,4.46c5.02,0.89,15.86,2.67,25.05,2.67c9.18,0,8.35,0,19.2-0.89
		c10.85-0.89,10.85-1.79,14.2-1.79c3.35,0,7.51,0.44,15.03,0.44c7.52,0,11.7-0.89,20.9-1.79c9.18-0.89,7.51,0,20.05,0
		c12.51,0,9.18-1.78,15.03-3.12c5.85-1.34,8.35-2.23,19.2-3.57c10.85-1.34,10.01-0.89,15.86-0.89c5.85,0,11.7,0,15.03-0.89
		C216.34,126.68,209.66,125.78,205.47,124.9z"/>
	<path class="st3" d="M25.92,144.52c-6.68-1.79-24.21-5.8-29.23-6.25c-5.01-0.45-25.05-4.91-24.23-0.45c0,0,53.44,11.16,58.46,13.83
		C35.95,154.33,32.6,146.31,25.92,144.52z"/>
</g>
<path class="st6" d="M369.16,249.33c-5.01-4.9,17.55-15.16,17.55-19.62s-7.52-9.37-10.85-14.27c-3.35-4.91-8.35-8.03-12.53-12.94
	c-2.31-2.71-6.43-7.36-11.18-12.52c-1.38-1.31-2.64-2.66-3.73-4.04c-2.78-2.96-5.66-6-8.47-8.86c-4.15-4.24-24.21-18.29-31.32-29.89
	c-0.18-0.29,0.3-0.85,0.99-1.5c-4.63-5.31-9.77-10.34-9.77-18.12c0-0.55-0.34-1.21-0.5-1.81c-1.63-1.59-2.68-2.75-3.21-5.11
	c-0.09-0.36-0.15-0.8-0.21-1.23c-7.05-8.84-21.13-18.61-21.13-18.61l-22.54-20.08c0,0-22.54-5.35-30.06-10.71
	c-7.51-5.35-15.03-17.4-20.05-22.74c-5.02-5.35-10.03-13.38-20.05-16.06c-6.35-1.69-13.68,3.05-18.21,6.75
	c-2.62,2.14-4.32,3.95-4.32,3.95H129.5l-22.56,1.33L74.38,57.98L36.8,53.96l-2.52,9.36l-70.14-2.67l-2.95,0.33
	c-21.71,15.71-41.61,32.15-59.81,49.19c3.41,0.25,6.81,0.44,10.14,0.44c10.85,0,12.53-4.01,33.4-4.91
	c20.9-0.89,29.25-1.34,29.25-1.34s11.69,0.89,20.88,3.57c9.18,2.67,9.18,2.67,20.05,3.57c10.85,0.89,16.7,2.67,25.05,3.57
	c8.35,0.89,24.21,3.12,24.21,3.12s19.2,1.34,21.71,2.24c2.5,0.89,7.52,2.67,7.52,4.01c0,1.34,2.5,2.23-4.18,2.23
	c-6.68,0-14.19,0.44-18.36-0.44c-4.18-0.89-13.37-2.23-22.55-4.01c-9.19-1.79-20.9-2.67-26.73-3.12
	c-5.85-0.44-10.85-0.89-15.86-1.34c-5.02-0.45-8.35-2.23-13.37-0.89c-5.02,1.34-14.2,5.35-14.2,5.35s-13.36,3.57-18.38,3.12
	c-5.01-0.44-33.39-3.57-33.39-3.57s-1.69,1.79-25.9,1.79c-5.23,0-9.37-0.14-12.84-0.34c-11.46,11.5-22.08,23.27-31.87,35.29
	c27.07,19.3,56.43,40.4,86.09,61.95c20.18-0.55,150.02-2.2,237.26,40.22c23.28,11.32,43.56,25.73,57.88,44.18
	c0,0-0.4,0.51-0.92,1.42c9.97-4.93,28.51-9.1,49.35-14.14c25.88-6.25,38.42,3.12,43.43-8.03c5.01-11.15-5.01-13.82,5.85-13.38
	c10.85,0.44,18.36-2.23,20.88-6.69c2.52-4.45,0.83-4.45,1.67-6.69c0.84-2.22,0-0.44,12.53-2.22
	C382.52,253.34,374.17,254.24,369.16,249.33z M30.93,151.65c-5.01-2.67-58.46-13.83-58.46-13.83c-0.84-4.46,19.2,0,24.23,0.45
	c5.01,0.44,22.54,4.46,29.23,6.25C32.62,146.31,35.95,154.33,30.93,151.65z M212.99,127.57c-3.35,0.89-9.19,0.89-15.03,0.89
	c-5.85,0-5.01-0.45-15.86,0.89c-10.85,1.34-13.37,2.23-19.2,3.57c-5.85,1.34-2.5,3.12-15.03,3.12c-12.54,0-10.87-0.89-20.05,0
	c-9.19,0.89-13.37,1.79-20.9,1.79c-7.51,0-11.69-0.44-15.03-0.44c-3.35,0-3.35,0.89-14.2,1.79c-10.85,0.89-10.03,0.89-19.2,0.89
	c-9.19,0-20.05-1.79-25.05-2.67c-5.01-0.89-15.87-3.57-18.38-4.46c-2.5-0.89-14.2-5.8,0-4.45c5.01,0.47,10.01,2.67,17.53,3.57
	c7.52,0.89,14.2,0.89,18.38,0.89s15.86,0.45,20.88,0.45c5.02,0,13.37-3.12,25.88-2.67c12.53,0.45,9.19,1.78,13.37,2.67
	s3.35,1.79,11.7,0.45c8.35-1.34,10.03-3.57,19.2-3.57c9.19,0,15.87-0.89,21.71-1.78c5.85-0.89,15.87-3.57,15.87-3.57
	s8.35-1.79,13.36-1.79c5.01,0,8.35,0.89,12.51,1.79C209.66,125.78,216.34,126.68,212.99,127.57z M240.55,109.73
	c-5.85,1.33-25.88,2.23-29.21,1.78c-3.35-0.45-5.02,0.89-18.38,2.67c-13.36,1.79-35.91,4.91-33.4,2.23l25.05-5.35
	c0,0,19.19-4.01,24.21-4.01c5.01,0,26.73,1.79,29.23,2.23C240.55,109.72,246.39,108.39,240.55,109.73z"/>
<g>
	<path class="st3" d="M93.57,124.45c0-1.34-5.01-3.12-7.52-4.01c-2.5-0.89-21.71-2.24-21.71-2.24s-15.86-2.22-24.21-3.12
		c-8.35-0.89-14.2-2.67-25.05-3.57c-10.85-0.89-10.85-0.89-20.05-3.57s-20.88-3.57-20.88-3.57s-8.35,0.45-29.25,1.34
		c-20.88,0.89-22.55,4.91-33.4,4.91c-3.33,0-6.72-0.19-10.14-0.44c-1.58,1.49-3.23,2.96-4.78,4.45h34.98
		c4.18,0-5.85,2.67-15.87,2.67c-7.54,0-15.55,1.01-24.02,1.89c-1.33,1.32-2.53,2.69-3.85,4.02c3.46,0.2,7.61,0.34,12.84,0.34
		c24.21,0,25.9-1.79,25.9-1.79s28.39,3.12,33.39,3.57c5.01,0.45,18.38-3.12,18.38-3.12s9.19-4.02,14.2-5.35
		c5.01-1.34,8.35,0.44,13.37,0.89c5.01,0.44,10.01,0.89,15.86,1.34c5.83,0.45,17.53,1.34,26.73,3.12
		c9.18,1.78,18.38,3.12,22.55,4.01c4.18,0.89,11.7,0.44,18.36,0.44C96.08,126.68,93.57,125.78,93.57,124.45z"/>
	<path class="st3" d="M295.91,119.42c0.06,0.44,0.12,0.86,0.21,1.23l0.55-0.1C296.38,120.17,296.22,119.81,295.91,119.42z"/>
	<path class="st3" d="M296.68,120.55l-0.55,0.1c0.53,2.36,1.58,3.51,3.21,5.11C298.9,124.14,298.03,122.4,296.68,120.55z"/>
	<path class="st3" d="M700.71,433.09c-11.69,0-34.25,0-42.59-1.79c-3.81-0.81-11.49-3.32-19.71-6.04
		c-9.77-3.23-20.33-6.78-26.23-8.23c-10.85-2.67-8.35-2.23-20.05-4.01c-11.69-1.79-24.21,2.22-24.21,2.22l-59.29-9.36
		c0,0-86.03-17.84-95.2-19.62c-9.19-1.79-42.59-14.27-59.3-16.96c-16.7-2.67-34.25-13.38-46.76-15.6
		c-12.53-2.23-35.92-18.73-40.93-24.98c-5.01-6.25,7.52-6.69,15.04-6.69c7.52,0,25.05-5.35,25.05-5.35s5.85,0.89,10.85,2.24
		c5.01,1.34,8.35,0.89,17.55,2.67c9.19,1.79,2.5,1.79,2.5,8.03c0,6.24,8.35,6.69,13.36,8.47c5.01,1.79,14.19,2.23,24.23,4.02
		c10.03,1.79,9.19-2.67,13.36-1.79c4.18,0.89,10.85,11.15,10.85,11.15s11.7,5.8,17.53,9.81c5.83,4.02,7.52,2.67,19.2,6.25
		c11.7,3.57,6.68-1.34,12.53-3.12c5.85-1.79,5.85-4.02,21.71-8.48c15.86-4.46,4.18,1.34,10.85,4.02c6.68,2.67,11.7-0.89,25.05-0.89
		c13.37,0,8.35,0.44,23.4,0.44c15.04,0,9.18-1.79,11.69,0.89c2.5,2.68,4.19,8.48,21.72,12.04c17.53,3.57,8.35-2.23,12.53-3.12
		c4.19-0.89-10.85-5.8-4.18-8.03c6.68-2.23,7.51,1.34,20.05,5.35c12.51,4.02,21.71,4.46,30.06,4.02c8.35-0.45,13.36-7.58,19.2-8.92
		c5.85-1.34,13.37-8.03,13.37-8.03l12.53,3.12l9.19-5.8c0,0,0,16.5-3.35,21.41c-3.35,4.9-13.36,20.08-13.36,23.64
		c0,3.57,7.51,8.92,5.85,12.5c-1.67,3.57-11.7,4.9-15.87,7.13c-4.18,2.23,4.18,8.92,4.18,8.92c0.59,0.27,0.98,0.43,1.51,0.66
		c10.6,4.69,8.39,1.22,22.73,2.92c15.03,1.79,9.18-0.44,18.36-1.34c2.9-0.29,5.32-0.9,7.48-1.58c4.66-1.47,7.55-3.32,7.55-3.32
		s5.02-3.57,5.85-7.13c0.84-3.57-8.35-2.67-12.53-3.57c-4.18-0.89-5.01-3.57-16.7-6.24c-11.7-2.67-10.85-7.58-10.85-7.58
		s-2.5-7.13-7.51-8.92c-5.01-1.78,5.01-8.03,5.01-8.03l8.35-14.72v-16.5l3.35-10.26l18.36-6.24l-11.7-14.27c0,0-5.85-7.58-5.85-8.92
		c0-0.08-0.09-0.18-0.1-0.26c-0.67-0.74-1.33-1.45-2.02-2.17c-1.14-0.64-2.65-1.14-4.56-1.14c-4.18,0-0.84,3.12-0.84,3.12
		s-3.35,3.12-8.34,5.8c-5.02,2.68-21.72-5.8-24.23-6.69c-2.46-0.88-6.55-2.17-13.02-3.5c-0.12-0.02-0.22-0.05-0.34-0.07
		c-6.68-1.33-6.68-2.22-15.03-0.89c-8.34,1.34,5.02,2.23,5.02,5.35c0,3.12-24.23-2.22-24.23-2.22s-17.53-5.8-25.88-10.26
		c-8.35-4.46,5.85-8.47,5.85-8.47l-24.21-8.92c-21.71,1.79-31.73-4.91-31.73-4.91l8.35-6.69c0,0-40.1,0-42.59-0.44
		c-2.5-0.45-15.87-7.58-15.87-7.58s-6.68-3.57-13.37-6.25c-6.68-2.67-12.51-6.25-19.19-8.47c-6.68-2.24-16.7-10.71-22.55-16.5
		c-5.85-5.8-23.38-23.19-28.39-29.43c-5.01-6.25-14.2-12.93-14.2-12.93l15.04-9.81l10.03-5.35c0,0-18.38-0.89-22.55-2.22
		c-4.18-1.34-5.01-4.92-5.01-4.92s6.68-3.12,14.2-4.01c7.51-0.89,7.51-1.79,8.35-4.91c0.83-3.12-23.4-4.02-23.4-4.02l-10.03-4.9
		l-8.35-4.91c0,0,0-6.24,0.84-8.03c0.84-1.78,0-4.01-2.5-4.45c-2.49-0.45-10.84-1.79-13.36-2.68c-2.5-0.89-9.18-1.79-9.18-1.79
		c-1.67,3.12-10.85,0-10.85,0c-10.03-3.12-2.5-2.67-2.5-2.67l-9-2.6l-11.13-3.22c0,1.61,0.09,2.82,0.24,3.89
		c0.31,0.39,0.48,0.75,0.76,1.13c1.35,1.85,2.22,3.59,2.66,5.2c1.32,1.3,2.99,2.9,5.09,5.83c0,0,11.7-0.89,17.12,4.01
		c1.39,1.25-8.75,7.12-11.93,10.09c-0.7,0.66-1.18,1.22-0.99,1.5c7.09,11.59,27.16,25.65,31.32,29.89c2.82,2.86,5.69,5.89,8.47,8.86
		c1.28,1.37,2.52,2.72,3.73,4.04c4.75,5.17,8.87,9.81,11.18,12.52c4.18,4.9,9.18,8.03,12.53,12.94c3.35,4.9,10.85,9.81,10.85,14.27
		c0,4.45-22.55,14.72-17.55,19.62c5.01,4.91,13.36,4.01,0.83,5.8c-12.53,1.78-11.69,0-12.53,2.22c-0.84,2.23,0.84,2.23-1.67,6.69
		c-2.5,4.46-10.03,7.13-20.88,6.69s-0.83,2.23-5.85,13.38c-5.01,11.15-17.55,1.79-43.43,8.03c-20.86,5.03-39.39,9.21-49.35,14.14
		c-1.12,1.99-2.78,6.05-1.97,11.78c1.52,10.71,11.74,27.15,50.49,46.34c0,0,8.07,2.95,18.36,9.08c5.91,2.6,10.49,4.38,12.56,4.75
		c10.01,1.78,11.69,0,27.56,0.44c15.86,0.44,39.24,9.37,53.44,12.04c14.2,2.68,75.18,30.33,75.18,30.33s20.86,1.34,25.88,1.34
		c3.18,0,6.25,0.87,8.35,2.88c1.22,1.15,2.19,2.59,2.5,4.71c0.83,5.8,4.18,4.9,15.03,10.7c10.85,5.8,6.68,0,13.36,1.79
		c6.69,1.79,6.68,5.35-3.35,12.04c-0.49,0.33-0.82,0.51-1.23,0.79c-1.04,0.66-1.92,1.23-2.64,1.65c7.05,0.32,13.98,0.68,20.57,1.12
		c60.13,4.01,115.25-4.01,157.85-13.38c0.24-0.05,0.42-0.1,0.64-0.16c2.4-1.82,4.8-3.84,7.7-6.09
		C724.09,432.65,712.4,433.09,700.71,433.09z"/>
</g>
<path class="st10" d="M345.1,425.26c-5.17-25.45-26.17-42.37-41.93-51.78c-10.28-6.13-18.36-9.08-18.36-9.08
	c-38.74-19.19-48.97-35.63-50.49-46.34c-0.82-5.73,0.84-9.78,1.97-11.78c0.52-0.91,0.92-1.42,0.92-1.42
	c-14.32-18.46-34.6-32.87-57.88-44.18c-87.26-42.42-217.08-40.77-237.26-40.22c14.27,10.37,17.52,23.32,31.69,33.74
	c47.05,34.61,89.75,76.84,124.64,104.78c0,0,26.13,6.4,39.49,21.75c17.32,5.05,62.87,6.3,103.59,18.33
	c27.42,8.1,57.78,17.13,88.03,26.21c5.43,1.63,10.84,3.26,16.24,4.89C345.53,428.52,345.43,426.83,345.1,425.26z"/>
<path class="st11" d="M501.69,479.47c-10.71,0-96.62-24.08-96.62-24.08s8.75-0.14,22.55-0.19c-24.83-7.74-53.02-16.33-81.91-25.04
	c-5.4-1.63-10.81-3.26-16.24-4.89c-30.25-9.08-60.61-18.11-88.03-26.21c-40.72-12.04-74.78-21.99-92.1-27.05
	c0.9,1.03,1.9,2,2.68,3.1c0,0,2.4,3.83,6.44,9.81c6.68,9.87,17.9,25.65,30.68,40.34c3.41,3.92,6.91,7.77,10.49,11.39
	c25.05,25.43,72.66,36.13,80.17,50.85c1.11,2.17,2.21,4.23,3.3,6.21c56.36-4.95,110.72-8.15,151.59-10.11
	c42.65-2.06,70.6-2.78,70.6-2.78C504.24,480.4,502.93,479.93,501.69,479.47z"/>
<path class="st12" d="M283.1,493.71c-1.1-1.98-2.19-4.03-3.3-6.21c-7.51-14.71-55.12-25.43-80.17-50.85
	c-3.57-3.62-7.08-7.47-10.49-11.39c-12.77-14.68-24-30.48-30.68-40.34c-4.04-5.99-6.44-9.81-6.44-9.81c-0.78-1.1-1.78-2.06-2.68-3.1
	c-13.34-15.35-37.39-23.66-37.39-23.66c-34.88-27.95-80.08-62.02-127.12-96.64c-14.17-10.42-28.49-20.89-42.78-31.26
	c-29.66-21.56-59.04-42.66-86.09-61.95c-1.56,1.91-3.2,3.79-4.71,5.72c-43.99,55.93-69.27,117.05-72.26,181.14l239.17,90.74
	l217.18,65.9l49.47,9.6l10.01,1.34C294.83,512.92,289.36,505.11,283.1,493.71z"/>
<g>
	<path class="st13" d="M-162.05,533.82c0.31,0.44,0.64,0.86,0.95,1.3c10.75-0.49,21.69-0.99,32.95-1.52
		C-139.64,533.67-150.95,533.74-162.05,533.82z"/>
	<path class="st13" d="M242.23,497.59l-39.27-12.91l-180.8-59.42l-243.17-79.91c-0.19,4.23-0.61,8.42-0.61,12.68
		c0,22.82,3.12,45.23,8.65,67.24c5.66,22.52,14.1,44.54,25.16,66c7.45,14.45,15.98,28.66,25.73,42.55
		c11.11-0.07,22.42-0.15,33.91-0.23c159.17-7.52,360.97-19.01,404.3-21.5c5.48-0.32,8.65-0.5,8.65-0.5L242.23,497.59z"/>
</g>
<g>
	<path class="st9" d="M708.23,444.68c0.19-0.03,0.43-0.1,0.62-0.14l0.02-0.01C708.64,444.58,708.46,444.64,708.23,444.68z"/>
	<path class="st9" d="M427.64,455.2c-13.8,0.05-22.55,0.19-22.55,0.19c7.98,0.32,16.56,0.52,25.35,0.69
		C429.51,455.78,428.59,455.49,427.64,455.2z"/>
</g>
<g>
	<path class="st14" d="M1077.9,478.08c5.52,0.03,8.65,0.05,8.65,0.05S1082.84,477.04,1077.9,478.08z"/>
	<path class="st14" d="M1608.69,368.93c-19.71,3.12-39.55,4.34-58.68,7.57c-63.77,10.73-119.32,20.95-132.75,23.34
		c-11.24,2-59.2,11.85-114.86,23.39c-93.33,19.36-208.31,45.53-208.31,45.53s-10.28,2.81-19.8,9.28c-2.22,1.51-4.34,3.28-6.35,5.2
		c-1.33,1.18-2.65,2.54-3.92,4.25c-10.03,13.38,10.03,32.11,10.03,32.11c62.35,18.78,325.72,27.22,508.15,30.87
		c9.82-12.58,18.61-25.44,26.52-38.51c16.86-27.91,29.19-56.89,36.68-86.7c4.75-18.94,7.52-38.21,8.2-57.76
		c0.06-1.83,0.24-3.64,0.27-5.46C1639.17,364.18,1623.97,366.51,1608.69,368.93z"/>
</g>
<path class="st3" d="M1456.47,109.9l-1.01-3.77c0,0-18.9-4.65-28.92-5.1c-10.03-0.44-15.03,2.23-18.38,3.12
	c-3.35,0.89-8.34,2.23-13.36,1.79c-5.01-0.45-31.73,11.59-48.44,15.16s-45.93,11.59-53.44,11.59c-7.52,0-22.55-0.44-33.4,2.23
	c-10.87,2.68-61.81,12.04-70.16,15.17c-8.35,3.12-30.06,13.38-68.49,16.05c-22.79,1.59-74.84,7.34-120.19,7.55
	c-0.84,0-1.73,0.04-2.56,0.04c-24.55,0-2.78,37.98,10.09,46.82c0,0,41.34,6.02,67.66-4.01c26.31-10.04-7.52-6.03,26.31-10.04
	c33.82-4.02,56.37,2.01,56.37,2.01s37.6,16.06,60.15,6.03c22.54-10.04,37.58-18.07,52.62-24.09c15.03-6.03,63.88-26.1,63.88-26.1
	s0-4.01,37.6-18.07c37.6-14.04,71.4-14.04,71.4-14.04l15.04-12.04L1456.47,109.9z"/>
</svg>
